<?xml version="1.0" standalone="no"?>
<!DOCTYPE svg PUBLIC "-//W3C//DTD SVG 20010904//EN"
 "http://www.w3.org/TR/2001/REC-SVG-20010904/DTD/svg10.dtd">
<svg version="1.0" xmlns="http://www.w3.org/2000/svg"
 width="544.000000pt" height="544.000000pt" viewBox="0 0 544.000000 544.000000"
 preserveAspectRatio="xMidYMid meet">
<metadata>
Created by potrace 1.14, written by Peter Selinger 2001-2017
</metadata>
<g transform="translate(0.000000,544.000000) scale(0.100000,-0.100000)"
fill="#000000" stroke="none">
<path d="M2890 5426 c0 -3 20 -24 43 -46 41 -37 104 -142 112 -186 2 -10 4
-19 5 -19 3 0 10 -38 18 -95 18 -136 -7 -330 -60 -458 -6 -15 -11 -30 -10 -34
1 -5 -1 -8 -6 -8 -4 0 -13 -15 -21 -32 -8 -18 -17 -35 -20 -38 -3 -3 -24 -32
-46 -65 -79 -118 -249 -271 -435 -390 -60 -39 -319 -179 -340 -184 -40 -10
-50 -15 -50 -24 0 -6 -3 -8 -6 -5 -3 3 -42 -9 -87 -28 -45 -18 -88 -34 -94
-34 -7 0 -13 -5 -13 -11 0 -5 5 -7 10 -4 6 3 10 1 10 -5 0 -6 4 -8 10 -5 5 3
35 8 67 11 107 9 187 19 233 31 14 3 31 7 39 9 70 14 190 50 281 86 77 30 241
108 250 119 3 3 16 12 29 19 35 18 44 26 135 115 116 113 198 239 249 382 15
40 28 85 31 100 2 15 5 28 6 28 8 0 14 74 14 185 0 121 -2 143 -26 211 -35 99
-80 171 -148 239 -60 60 -107 100 -116 100 -3 0 -19 9 -35 21 -16 11 -29 18
-29 15z"/>
<path d="M2295 5295 c221 -114 332 -294 324 -527 -3 -80 -18 -168 -29 -168 -4
0 -11 -11 -14 -24 -19 -78 -218 -318 -346 -418 -144 -114 -422 -266 -533 -293
-43 -11 -41 -24 3 -14 118 27 531 217 684 316 88 57 238 207 294 295 111 171
124 374 36 553 -36 72 -88 135 -146 176 -18 13 -35 26 -38 29 -7 9 -140 72
-159 75 -9 2 -16 4 -16 5 0 1 -10 4 -50 13 -73 17 -75 15 -10 -18z"/>
<path d="M3387 5058 c19 -29 39 -62 44 -73 5 -11 13 -27 18 -35 29 -45 67
-146 87 -225 17 -73 21 -112 18 -205 -1 -63 -4 -122 -7 -130 -15 -64 -43 -142
-64 -185 -26 -51 -98 -162 -117 -180 -6 -5 -25 -26 -41 -45 l-30 -35 30 25
c67 55 164 160 186 202 6 13 15 25 18 28 4 3 16 25 28 50 123 254 67 534 -166
827 -41 52 -43 38 -4 -19z"/>
<path d="M717 3422 c-28 -2 -40 -9 -46 -25 -16 -40 2 -442 25 -561 2 -10 6
-44 10 -75 3 -31 8 -65 10 -76 3 -11 7 -36 10 -55 3 -19 8 -48 11 -65 3 -16 7
-39 8 -50 3 -18 15 -73 70 -320 8 -38 20 -81 25 -95 5 -14 11 -34 13 -45 2
-11 7 -27 10 -35 3 -8 16 -44 27 -80 12 -36 25 -74 30 -85 5 -11 30 -69 55
-130 50 -117 104 -226 118 -236 5 -3 7 -8 6 -10 -4 -6 46 -91 113 -193 81
-122 107 -157 152 -209 10 -12 30 -37 45 -56 51 -67 113 -123 199 -179 48 -31
89 -57 92 -57 3 -1 38 -18 77 -38 77 -39 279 -110 353 -123 25 -4 47 -8 50 -9
3 -1 28 -5 55 -10 28 -4 59 -9 70 -11 80 -15 277 -19 425 -9 150 10 217 20
356 51 329 73 604 239 839 509 19 22 63 83 97 137 47 72 69 97 84 98 13 0 24
-8 27 -20 3 -11 12 -23 21 -26 15 -6 139 39 161 58 5 4 17 8 26 8 10 0 19 3
21 7 2 5 37 25 78 46 99 49 144 75 272 152 9 5 45 27 81 47 35 21 70 44 77 53
7 8 17 15 22 15 17 0 110 71 164 126 85 85 184 249 184 304 0 9 3 20 8 24 4 4
7 11 8 14 0 4 4 32 9 62 8 56 9 158 1 196 -18 88 -76 203 -134 267 -36 39 -46
49 -116 109 -29 26 -164 100 -189 104 -7 1 -30 6 -52 11 -35 9 -91 9 -210 0
-29 -2 -30 -1 -30 43 1 44 11 133 21 181 4 23 9 68 19 167 2 23 7 46 9 51 3 4
0 16 -7 25 -11 16 -143 17 -1917 19 -1048 1 -1922 1 -1943 -1z m4048 -741
c195 -52 308 -308 220 -496 -37 -76 -145 -184 -251 -249 -43 -27 -90 -56 -104
-65 -46 -31 -234 -119 -300 -141 -59 -20 -65 -20 -76 -5 -10 13 -6 29 22 83
44 89 97 220 123 307 34 115 73 291 75 338 0 9 3 17 6 17 3 0 5 12 6 28 1 46
15 166 19 171 3 2 26 9 52 16 54 14 150 12 208 -4z"/>
<path d="M1167 1004 c-1 -1 -22 -5 -47 -8 -25 -3 -56 -8 -70 -11 -37 -8 -71
-14 -105 -20 -56 -10 -290 -67 -300 -73 -5 -4 -19 -8 -30 -9 -40 -6 -172 -56
-261 -98 -308 -148 -311 -311 -9 -462 33 -17 71 -34 85 -38 14 -4 39 -13 55
-21 65 -29 342 -102 490 -129 194 -35 305 -52 386 -60 25 -2 59 -6 75 -9 16
-3 60 -8 98 -12 38 -3 77 -7 86 -9 14 -3 79 -8 240 -20 367 -27 1166 -27 1475
0 22 2 78 6 125 10 47 3 103 8 125 10 145 15 221 24 265 31 19 2 53 7 75 10
22 2 65 9 95 14 30 5 73 12 95 15 39 5 56 8 108 20 12 3 38 8 57 11 72 12 316
77 399 106 250 88 401 197 401 290 0 147 -208 269 -650 384 -37 9 -364 74
-376 74 -7 0 -41 -27 -76 -60 -34 -33 -66 -60 -70 -60 -5 0 -8 -4 -8 -9 0 -8
56 -26 116 -37 112 -21 264 -87 323 -141 50 -44 57 -83 24 -127 -41 -56 -227
-139 -383 -171 -8 -2 -37 -9 -65 -15 -27 -7 -63 -14 -80 -16 -16 -3 -50 -9
-75 -14 -46 -10 -160 -26 -240 -35 -25 -3 -65 -7 -90 -10 -88 -10 -211 -20
-390 -31 -235 -15 -914 -9 -1125 10 -22 2 -76 7 -120 11 -44 3 -98 8 -120 11
-22 3 -58 7 -80 9 -22 2 -58 7 -80 10 -22 3 -57 8 -77 10 -21 2 -41 6 -45 8
-5 3 -31 7 -60 11 -28 3 -57 8 -65 11 -7 2 -24 6 -38 9 -22 4 -150 33 -175 41
-5 1 -25 6 -43 10 -18 4 -35 12 -38 16 -3 5 -12 9 -21 9 -30 0 -163 71 -193
103 -45 48 -42 94 8 139 55 50 214 119 324 142 13 3 32 7 43 10 25 7 166 37
182 40 25 4 21 13 -31 69 -45 49 -58 57 -85 55 -18 -1 -33 -3 -34 -4z"/>
</g>
</svg>
