<svg width="65" height="68" viewBox="0 0 65 68" fill="none" xmlns="http://www.w3.org/2000/svg">
<path d="M62.6402 34.0665C59.6241 30.7002 56.7608 31.0269 55.5634 31.3755C55.2964 31.453 55.041 31.2206 55.086 30.9443C55.4338 28.8163 55.6879 26.5735 55.7854 25.6619C55.8098 25.4359 55.634 25.2396 55.4081 25.2396H7.1888C6.98346 25.2396 6.81533 25.4023 6.80891 25.6089C6.61768 32.4653 8.52099 39.8241 8.52099 39.8241C10.7413 50.0183 16.9441 56.2072 17.2855 56.5429C17.2957 56.5519 17.3047 56.561 17.3163 56.57C26.3798 63.6627 38.7147 59.6457 38.7147 59.6457C45.3371 57.5423 48.5046 52.6628 49.4556 50.9196C49.6263 50.6058 50.1012 50.6768 50.1602 51.0281C50.1615 51.0397 50.164 51.05 50.1653 51.0616C50.2013 51.2979 50.44 51.4438 50.6633 51.3638C54.0053 50.1629 58.4357 47.3494 60.1888 46.1937C60.8832 45.7353 61.5223 45.1956 62.0716 44.5693C63.7529 42.6519 64.3047 40.6711 64.4087 39.0842C64.5293 37.2416 63.8671 35.4378 62.6376 34.0665H62.6402ZM58.0596 43.5596C58.0596 43.5596 54.7407 45.8037 52.0481 46.5836C51.7183 46.6792 51.4423 46.3254 51.613 46.0258C52.4742 44.5164 54.2428 40.7796 54.7548 34.8412C54.769 34.6824 54.878 34.5468 55.0308 34.5055C56.0113 34.2421 59.551 33.5835 60.905 37.3359C60.9101 37.3501 60.9152 37.363 60.9229 37.3759C61.0513 37.6251 62.5054 40.6685 58.0584 43.5583L58.0596 43.5596Z" fill="url(#paint0_linear_306_114)"/>
<path d="M49.0201 55.4699C48.4811 56.038 47.8599 56.6256 47.1528 57.2053C50.9671 58.0046 53.3029 59.0789 53.3029 60.2591C53.3029 62.7305 43.0676 64.7345 30.4427 64.7345C17.8177 64.7345 7.58243 62.7305 7.58243 60.2591C7.58243 58.9239 10.5677 57.727 15.2996 56.9058C14.9236 56.5016 14.4551 55.9722 13.9289 55.324C5.53666 56.561 0 58.6825 0 61.0919C0 64.9075 13.8802 68 31.0009 68C48.1217 68 62.0019 64.9075 62.0019 61.0919C62.0019 58.7742 56.8798 56.7237 49.0201 55.4712V55.4699Z" fill="url(#paint1_linear_306_114)"/>
<path d="M18.958 19.9702C18.958 19.9702 27.879 17.3903 31.0016 10.2098C31.0016 10.2098 33.0089 3.92664 26.0951 1.34676C26.0951 1.34676 33.381 2.00271 33.1333 8.71839C33.1282 8.84493 33.1256 8.97148 33.1256 9.09931C33.1295 9.62484 32.9421 11.7889 29.9261 14.6361C29.1753 15.345 28.3321 15.948 27.4247 16.4361C25.2763 17.5917 20.6457 19.9715 18.958 19.9715V19.9702Z" fill="url(#paint2_linear_306_114)"/>
<path d="M21.5195 20.9799C21.5195 20.9799 34.1201 17.1656 36.4624 9.20001C36.4624 9.20001 38.4696 2.58117 34.2318 0C34.2318 0 39.0266 1.79481 39.1383 7.29286C39.1383 7.29286 39.5849 13.0143 34.0085 17.3903C34.0085 17.3903 28.6553 21.0922 21.5195 20.9799Z" fill="url(#paint3_linear_306_114)"/>
<path d="M39.1484 19.0727C39.1484 19.0727 47.2802 13.0143 39.9211 3.47856C39.9211 3.47856 49.0821 12.0046 39.1484 19.0727Z" fill="url(#paint4_linear_306_114)"/>
<defs>
<linearGradient id="paint0_linear_306_114" x1="6.79608" y1="43.0095" x2="64.4241" y2="43.0095" gradientUnits="userSpaceOnUse">
<stop stop-color="#8C81BC"/>
<stop offset="1" stop-color="#8F87C0"/>
</linearGradient>
<linearGradient id="paint1_linear_306_114" x1="0" y1="61.6626" x2="62.0019" y2="61.6626" gradientUnits="userSpaceOnUse">
<stop stop-color="#8C81BC"/>
<stop offset="1" stop-color="#8E87C0"/>
</linearGradient>
<linearGradient id="paint2_linear_306_114" x1="18.958" y1="10.6578" x2="33.1398" y2="10.6578" gradientUnits="userSpaceOnUse">
<stop stop-color="#8B81BC"/>
<stop offset="1" stop-color="#8E87C0"/>
</linearGradient>
<linearGradient id="paint3_linear_306_114" x1="21.5195" y1="10.4912" x2="39.1473" y2="10.4912" gradientUnits="userSpaceOnUse">
<stop stop-color="#8B81BC"/>
<stop offset="1" stop-color="#8E87C0"/>
</linearGradient>
<linearGradient id="paint4_linear_306_114" x1="39.1484" y1="11.275" x2="43.7726" y2="11.275" gradientUnits="userSpaceOnUse">
<stop stop-color="#8B81BC"/>
<stop offset="1" stop-color="#8E87C0"/>
</linearGradient>
</defs>
</svg>